<?xml version="1.0" encoding="utf-8"?>
<!-- Generator: Adobe Illustrator 27.8.0, SVG Export Plug-In . SVG Version: 6.00 Build 0)  -->
<svg version="1.1"
	 id="svg2" xmlns:dc="http://purl.org/dc/elements/1.1/" xmlns:cc="http://creativecommons.org/ns#" xmlns:inkscape="http://www.inkscape.org/namespaces/inkscape" xmlns:rdf="http://www.w3.org/1999/02/22-rdf-syntax-ns#" xmlns:svg="http://www.w3.org/2000/svg" xmlns:sodipodi="http://sodipodi.sourceforge.net/DTD/sodipodi-0.dtd"
	 xmlns="http://www.w3.org/2000/svg" xmlns:xlink="http://www.w3.org/1999/xlink" x="0px" y="0px" viewBox="0 0 841.9 595.3"
	 style="enable-background:new 0 0 841.9 595.3;" xml:space="preserve">
<style type="text/css">
	.st0{fill:#FFFFFF;stroke:#000000;stroke-opacity:0;}
	.st1{fill:none;}
	.st2{font-family:'ArialMT';}
	.st3{font-size:12px;}
	.st4{fill:#6F6F71;}
	.st5{font-family:'CenturyGothic-Bold';}
	.st6{font-size:14.5358px;}
	.st7{fill-rule:evenodd;clip-rule:evenodd;fill:#0A9BD8;}
	.st8{fill-rule:evenodd;clip-rule:evenodd;fill:#055AA4;}
	.st9{fill-rule:evenodd;clip-rule:evenodd;fill:#FFFFFF;}
	.st10{fill:#055AA4;}
	.st11{font-family:'AquawaxProTrial-UltraBold';}
	.st12{font-size:69.7716px;}
</style>
<sodipodi:namedview  bordercolor="#666666" borderopacity="1" gridtolerance="10" guidetolerance="10" id="namedview32" inkscape:current-layer="svg2" inkscape:cx="420.94489" inkscape:cy="297.63779" inkscape:pageopacity="0" inkscape:pageshadow="2" inkscape:window-height="983" inkscape:window-maximized="0" inkscape:window-width="1208" inkscape:window-x="0" inkscape:window-y="0" inkscape:zoom="0.36821923" objecttolerance="10" pagecolor="#ffffff" showgrid="false">
	</sodipodi:namedview>
<path id="rect4221" class="st0" d="M3.8-4.1h831.7c3.6,0,6.5,2.9,6.5,6.5V595c0,3.6-2.9,6.5-6.5,6.5H3.8c-3.6,0-6.5-2.9-6.5-6.5V2.3
	C-2.6-1.2,0.3-4.1,3.8-4.1z"/>
<path id="path4" inkscape:connector-curvature="0" class="st1" d="M89.4-116.2h633v506.4h-633L89.4-116.2L89.4-116.2z"/>
<text transform="matrix(1 0 0 1 760.3934 358.2491)" class="st2 st3"> </text>
<text transform="matrix(1.0252 0 0 1 346.312 378.2504)" class="st4 st5 st6">BRINGING BUSINESS PARTNERS </text>
<text transform="matrix(1.0252 0 0 1 508.2715 393.6293)" class="st4 st5 st6">’</text>
<text transform="matrix(1.0252 0 0 1 512.2354 393.5658)" class="st4 st5 st6">S FUTURE</text>
<path id="path14_00000138569062234002626010000009670396990602315952_" inkscape:connector-curvature="0" class="st7" d="
	M356.2,342.7c-14.6,34.3-51.7,56-91.1,50.4c-46.6-6.6-78.9-48.8-72.1-94.3c6.5-43.1,45.8-73.7,89.6-71
	c-40.3-0.3-75.8,28.6-81.8,68.6c-6.6,43.8,24.5,84.5,69.4,90.9C306.7,392.3,341,373.3,356.2,342.7L356.2,342.7z"/>
<path id="path16_00000026863014015272235010000008046908663336817793_" inkscape:connector-curvature="0" class="st7" d="
	M188.4,316.7c-6.5-1.7-10.8-4.5-12.4-8.3c-5.9-13.7,33.9-40.5,69-49.3s72.1-7.8,86.8,1c-26.6-7.1-62.6-4.7-87.7,2.9
	c-31.9,9.8-54.3,25.5-61.6,35.8C174.9,309.6,185.6,314.6,188.4,316.7L188.4,316.7z"/>
<path id="path18_00000011725573609376386320000005144546889829702038_" inkscape:connector-curvature="0" class="st7" d="
	M224.3,389.6c-5-1.4-8.3-3.5-9.6-6.4c-4.6-10.6,26.1-31.2,53.2-38c27.1-6.8,55.6-5.9,67,0.8c-20.6-5.4-49.3-3.5-68.6,2.5
	C256.6,351.5,199.5,380.4,224.3,389.6L224.3,389.6L224.3,389.6z"/>
<path id="path20_00000148632850844990515580000018171000300832559279_" inkscape:connector-curvature="0" class="st8" d="
	M364.5,321.9l12.5-18.5c0.3-0.5,0.7-1,1.2-1.5c0.5-0.5,1-0.9,1.5-1.3c0.5-0.4,1.1-0.7,1.7-0.9s1.2-0.3,1.8-0.3h10.6l-15.6,23.1
	c-0.3,0.5-0.7,0.9-1.2,1.1c-0.5,0.2-0.7,0.4-0.8,0.4c0,0,0.1,0,0.3,0.1c0.2,0.1,0.3,0.2,0.5,0.3s0.4,0.3,0.6,0.5
	c0.2,0.2,0.4,0.4,0.6,0.7l16.7,24.5h-10.6c-1.4,0-2.6-0.4-3.6-1.1s-1.9-1.6-2.7-2.9l-13.5-19.9c-0.3-0.4-0.6-0.8-0.9-1.1
	c-0.3-0.3-0.6-0.5-0.9-0.7c-0.3-0.2-0.5-0.3-0.7-0.4s-0.3-0.1-0.3-0.2c0,0,0.1,0,0.3-0.1c0.2-0.1,0.4-0.2,0.7-0.4
	c0.3-0.2,0.6-0.4,0.9-0.7C364,322.6,364.3,322.2,364.5,321.9L364.5,321.9z M597.2,310.2v-10.9h40.7v10.9h-14.4v39.8h-11.9v-39.8
	H597.2z M560.5,324.8c0,1.9,0.4,3.8,1.2,5.5c0.8,1.7,1.9,3.3,3.2,4.6c1.4,1.3,2.9,2.3,4.7,3c1.8,0.8,3.7,1.2,5.7,1.2
	c1.6,0,3-0.2,4.4-0.7c1.4-0.5,2.6-1.1,3.8-1.8c1.3-0.9,2.7-1.3,4.4-1.3c1.3,0,2.3,0.2,3.2,0.6c0.9,0.4,1.7,1,2.5,1.6l3.1,3
	c-1.5,1.6-3.1,3-4.8,4.2c-1.7,1.3-3.4,2.3-5.2,3.2c-1.8,0.9-3.7,1.6-5.6,2c-1.9,0.5-3.9,0.7-5.8,0.7c-2.5,0-4.8-0.3-7.1-0.9
	c-2.3-0.6-4.4-1.5-6.4-2.6s-3.8-2.4-5.4-4.1c-1.6-1.6-3-3.3-4.2-5.2c-1.2-1.9-2.1-4-2.7-6.2c-0.6-2.2-1-4.5-1-6.9
	c0-2.4,0.3-4.7,1-6.9c0.6-2.2,1.6-4.3,2.7-6.2c1.2-1.9,2.6-3.7,4.2-5.2c1.6-1.6,3.4-2.9,5.4-4.1s4.1-2,6.4-2.6
	c2.3-0.6,4.7-0.9,7.1-0.9c1.9,0,3.9,0.2,5.8,0.7c1.9,0.5,3.8,1.2,5.6,2c1.8,0.9,3.6,1.9,5.2,3.2c1.7,1.3,3.3,2.6,4.8,4.2l-3.1,3
	c-0.7,0.7-1.6,1.3-2.5,1.6s-2,0.6-3.2,0.6c-1.6,0-3.1-0.4-4.4-1.3c-1.2-0.8-2.5-1.5-3.9-1.8c-1.4-0.4-2.8-0.7-4.4-0.7
	c-2,0-3.9,0.4-5.7,1.2c-1.8,0.8-3.4,1.7-4.7,3c-1.4,1.3-2.4,2.8-3.2,4.6C560.9,321,560.5,322.8,560.5,324.8L560.5,324.8z
	 M545.6,350.1H511v-50.7h34.6v10.9H523v8.9h18.5V330H523v9.3h22.7V350.1z M502.3,350.1h-11.8l-24.8-35v35h-11.8v-50.7h11.6
	c1.2,0,2.2,0.2,3.1,0.5c0.9,0.3,1.6,0.9,2.1,1.6l18.2,26c0.3,0.4,0.5,0.8,0.7,1.3s0.4,0.9,0.5,1.3c0.1,0.4,0.3,0.8,0.3,1
	c0.1,0.3,0.1,0.5,0.1,0.5v-32h11.8L502.3,350.1L502.3,350.1z M394.9,324.8c0-2.4,0.3-4.7,1-6.9c0.6-2.2,1.5-4.3,2.7-6.2
	c1.2-1.9,2.6-3.7,4.2-5.2c1.6-1.6,3.4-2.9,5.4-4.1c2-1.2,4.1-2,6.4-2.6c2.3-0.6,4.7-0.9,7.1-0.9c2.5,0,4.8,0.3,7.1,0.9
	c2.3,0.6,4.4,1.5,6.4,2.6s3.8,2.4,5.4,4.1c1.6,1.6,3,3.3,4.2,5.2c1.2,1.9,2.1,4,2.7,6.2c0.6,2.2,1,4.5,1,6.9s-0.3,4.7-1,6.9
	c-0.6,2.2-1.5,4.3-2.7,6.2s-2.6,3.7-4.2,5.2c-1.6,1.6-3.4,2.9-5.4,4.1s-4.1,2-6.4,2.6c-2.3,0.6-4.7,0.9-7.1,0.9
	c-2.5,0-4.9-0.3-7.1-0.9c-2.3-0.6-4.4-1.5-6.4-2.6c-2-1.2-3.8-2.4-5.4-4.1c-1.6-1.6-3-3.3-4.2-5.2c-1.2-1.9-2.1-4-2.7-6.2
	C395.3,329.4,394.9,327.2,394.9,324.8z M359.6,350.1h-11.9v-50.7h11.9V350.1z M480.4,288.2h-11.8l-24.8-35v35h-11.8v-50.7h11.6
	c1.2,0,2.2,0.2,3.1,0.5c0.9,0.3,1.6,0.9,2.1,1.6l18.2,26c0.3,0.4,0.5,0.8,0.7,1.3c0.2,0.5,0.4,0.9,0.5,1.3c0.1,0.4,0.3,0.8,0.3,1
	c0.1,0.3,0.1,0.5,0.1,0.5v-32h11.8L480.4,288.2L480.4,288.2z M425.7,288.2h-34.6v-50.7h34.6v10.9h-22.7v8.9h18.5v10.9h-18.5v9.3
	h22.7V288.2z M483.5,248.4v-10.9h40.7v10.9h-14.4v39.8h-11.9v-39.8H483.5z"/>
<path id="path22_00000151508135473000738150000017391922824040957081_" inkscape:connector-curvature="0" class="st9" d="
	M417.9,307.4c0.5-0.5,0.5-0.3,0.5-1.1c0-0.9-0.5-0.7-2.9-0.5c-3.4,0.2-2.2,1-3.9,0.7c-0.8-0.2-0.6-0.2-1.1-0.5c-1.9,2.5-1.5,0-2.5,3
	c-0.3,0.8-0.8,0.7-1.6,1.2c-1,0.6-1.8,1.7-2.6,2.9c-0.8,1.1,0.8,0.9-0.6,3.9c-0.4,1-0.1-0.4-0.1,1.9c2.1,1.1,1.2,2.6,4.3,4.3
	c0.8,0.4,1.2,0.2,1.9,0c1.9-0.5-0.2,0.5,3.3-0.5c2.8-0.8,2.2,0.8,3.3,0.8c0.4,0,0.5-0.2,1,0c1.1,0.4,0.6,1.4,0.6,1.9
	c0,1.2,0.1-0.2-0.3,1.1c0,0.5,1.2,1.2,2,3c0.5,1.1,0.2,0.8,0.5,1.8c0.3,1,0.3,0.7-0.3,1.6c-0.8,1.4-0.9,2.2-0.1,3.6
	c0.9,1.5,0.8,1.7,1.2,3.6c0.2,1.2,0.5,0.8,0.9,1.5c1.2,1.8,0.3,2.8,1.3,3.1c0,0,3.3-0.1,4-0.7c0.2-0.2,0.3-0.4,0.6-0.6
	c1.1-1.1,1.9-1.2,2.4-2.4c0.1-0.3,0.1-0.3,0.1-0.6l0.1-0.4c1.8-0.8,1.4-0.6,1.2-2.5c-0.1-0.7,0.4-0.8,0.9-1.2c2-1.8,2.1,0.3,2.6-3.8
	c0.1-1-0.5-1.7-0.7-3.1c-0.1-1.2,3-4.1,3.7-4.6c1.6-1.2,2.8-3.7,2.8-5.6c-1.8,0.5-4.1,1.7-4.4,0l-0.2-0.6c-0.7-0.8-1.6-0.7-2.2-1.9
	c-0.6-1.4-0.9-0.5-1.1-1.7c-0.3-1.6-0.5-0.9-1-1.7c-0.1-0.2-0.1-0.2-0.2-0.4c0,0,0-0.1-0.1-0.1c-0.4-0.7-1.7-2.3-1.8-3.1
	c0.5,0.7,0.3,0.8,1,1c0.2-1.9-0.4-1.6-1.4-1.8c-1.1-0.1-1.6,0.8-4.6-0.4c-1.8-0.7-1.3,0.5-1.7,1.2c-1.6-0.2-1.5-0.6-2.4-1.1
	c-0.5-0.3-0.9-0.2-1.4-0.4C418.2,307.8,418.6,307.9,417.9,307.4L417.9,307.4z M435.2,338.2c0,1.2,0,2.5,1.4,1.8
	c0.8-0.4,2.1-4.2,2.4-4.8c0.2-0.4,0.4-0.4,0.4-1c0-0.5-0.1-1.1-0.2-1.5c-0.7,0.3-0.1-0.1-0.7,0.7c-1.7,2.1-0.6,0.7-2,1.5
	c-0.7,0.4-0.4,1-0.4,1.7C435.9,337.6,435.4,337.7,435.2,338.2L435.2,338.2z"/>
<path id="path24_00000001631002398544869880000006992931117576212900_" inkscape:connector-curvature="0" class="st7" d="
	M200.9,360.9c-6.2-1.6-10.3-4.3-11.9-7.9c-5.6-13.1,32.3-38.7,66-47.1c33.6-8.4,68.8-7.4,82.9,1c-25.4-6.8-56.2-4.5-80.3,2.8
	C229.8,318,172.5,343.1,200.9,360.9L200.9,360.9z"/>
<path id="path26_00000151541226833566189130000011679547809288710032_" inkscape:connector-curvature="0" class="st7" d="M284.4,384
	c-20.2-8.2-38.4-25.3-49.5-48.3c-15.3-32.2-11.8-66.9,6.3-88.2c-13.6,24-16.7,57.1-1.8,88.3C249.5,356.6,267,373.5,284.4,384
	L284.4,384z"/>
<path id="path28_00000136413723112186241440000005137767914848112776_" inkscape:connector-curvature="0" class="st7" d="
	M310.5,375.6c13.4-16.8,21-40.4,19-65.7c-2.8-35.4-23.1-64-49.7-74c23.9,14.4,43.1,41.9,45.8,76.3
	C327.4,335.1,320.5,358.2,310.5,375.6L310.5,375.6z"/>
<path id="path30_00000036209752775210111370000004283453677563073186_" inkscape:connector-curvature="0" class="st7" d="M260.9,238
	c14.5,44.3,26.4,89.3,37.6,134.6C290.3,321.3,285.7,286.4,260.9,238L260.9,238z"/>
<text transform="matrix(1.0252 0 0 1 335.3052 287.7885)" class="st10 st11 st12">V      </text>
<text transform="matrix(1.0252 0 0 1 347.2134 393.6888)" class="st4 st5 st6">TOGETHER FOR AFRICA</text>
<text transform="matrix(1.0252 0 0 1 523.8711 287.765)" class="st10 st11 st12">URE</text>
</svg>
