<?xml version="1.0" encoding="UTF-8" standalone="no"?>
<svg
   xmlns:dc="http://purl.org/dc/elements/1.1/"
   xmlns:cc="http://creativecommons.org/ns#"
   xmlns:rdf="http://www.w3.org/1999/02/22-rdf-syntax-ns#"
   xmlns:svg="http://www.w3.org/2000/svg"
   xmlns="http://www.w3.org/2000/svg"
   xmlns:sodipodi="http://sodipodi.sourceforge.net/DTD/sodipodi-0.dtd"
   xmlns:inkscape="http://www.inkscape.org/namespaces/inkscape"
   version="1.1"
   width="841.88977"
   height="595.27557"
   id="svg2"
   inkscape:version="0.91 r13725"
   viewBox="0 0 841.88977 595.27557"
   sodipodi:docname="8.svg"
   inkscape:export-filename="/Users/thomas/Documents/Konect Group/8.png"
   inkscape:export-xdpi="90"
   inkscape:export-ydpi="90">
  <metadata
     id="metadata36">
    <rdf:RDF>
      <cc:Work
         rdf:about="">
        <dc:format>image/svg+xml</dc:format>
        <dc:type
           rdf:resource="http://purl.org/dc/dcmitype/StillImage" />
        <dc:title></dc:title>
      </cc:Work>
    </rdf:RDF>
  </metadata>
  <defs
     id="defs34" />
  <sodipodi:namedview
     pagecolor="#ffffff"
     bordercolor="#666666"
     borderopacity="1"
     objecttolerance="10"
     gridtolerance="10"
     guidetolerance="10"
     inkscape:pageopacity="0"
     inkscape:pageshadow="2"
     inkscape:window-width="1208"
     inkscape:window-height="983"
     id="namedview32"
     showgrid="false"
     inkscape:zoom="0.36821923"
     inkscape:cx="420.94489"
     inkscape:cy="297.63779"
     inkscape:window-x="0"
     inkscape:window-y="0"
     inkscape:window-maximized="0"
     inkscape:current-layer="svg2" />
  <rect
     style="fill:#ffffff;fill-opacity:1;stroke:#000000;stroke-width:1;stroke-miterlimit:4;stroke-dasharray:none;stroke-opacity:0"
     id="rect4221"
     width="844.60553"
     height="605.61749"
     x="-2.7157733"
     y="3.2369609"
     ry="6.4615402" />
  <path
     d="m 94.4249,47.8076 632.9776,0 0,506.3831 -632.9776,0 0,-506.3831 z"
     style="fill:none"
     id="path4"
     inkscape:connector-curvature="0" />
  <text
     x="338.7121"
     y="384.7876"
     id="text6">
    <tspan
       font-size="15.0000"
       id="tspan8"
       style="font-size:15px;font-family:'Century Gothic';fill:#6e6f70">BRINGING BUSINESS PARTNERS TOGETHER FOR AFRICA</tspan>
    <tspan
       font-size="15.0000"
       id="tspan10"
       style="font-size:15px;font-family:'Century Gothic';fill:#6e6f70">’</tspan>
    <tspan
       font-size="15.0000"
       id="tspan12"
       style="font-size:15px;font-family:'Century Gothic';fill:#6e6f70">S FUTURE</tspan>
  </text>
  <path
     d="m 343.0678,337.5893 c -14.6993,35.4149 -51.9868,57.7664 -91.6696,51.9882 -46.9267,-6.8329 -79.4293,-50.4136 -72.5964,-97.3406 6.4837,-44.5283 46.0556,-76.0634 90.1766,-73.3337 -40.6364,-0.265 -76.2789,29.4557 -82.3005,70.8095 -6.5832,45.2123 24.7317,87.2008 69.9437,93.784 36.6466,5.3359 71.1726,-14.2277 86.4462,-45.9074 z"
     style="fill:#009ee0;fill-rule:evenodd"
     id="path14"
     inkscape:connector-curvature="0" />
  <path
     d="m 174.1523,310.8463 c -6.4584,-1.7638 -10.8723,-4.6323 -12.5318,-8.6039 -5.9149,-14.1465 34.0921,-41.7807 69.5208,-50.866 35.4286,-9.0853 72.6173,-7.9674 87.3712,1.0205 -26.8342,-7.3204 -63.0294,-4.9311 -88.3378,3.032 -32.0577,10.0882 -54.7389,26.2786 -61.9782,36.9387 -7.574,11.1521 3.183,16.2728 5.9558,18.4787 z"
     style="fill:#009ee0;fill-rule:evenodd"
     id="path16"
     inkscape:connector-curvature="0" />
  <path
     d="m 210.3824,386.0778 c -4.9824,-1.3615 -8.3874,-3.5735 -9.6675,-6.6366 -4.5631,-10.9141 26.3001,-32.2323 53.6314,-39.2403 27.3313,-7.0089 56.0203,-6.1472 67.4021,0.7864 -20.7011,-5.6473 -49.6267,-3.5819 -69.1497,2.5636 -9.7226,3.0599 -67.1741,32.8527 -42.3331,42.3222 l 0.1168,0.2047 z"
     style="fill:#009ee0;fill-rule:evenodd"
     id="path18"
     inkscape:connector-curvature="0" />
  <path
     d="m 357.0735,255.7647 12.5711,-19.0695 c 0.3402,-0.5103 0.741,-1.008 1.2025,-1.4939 0.4614,-0.4858 0.9595,-0.911 1.4941,-1.2875 0.5343,-0.3767 1.1052,-0.6925 1.7002,-0.9232 0.5953,-0.2308 1.2025,-0.3402 1.8343,-0.3402 l 10.7127,0 -15.6685,23.8065 c -0.3399,0.4859 -0.7288,0.8623 -1.1781,1.1296 -0.4493,0.2673 -0.7288,0.413 -0.826,0.4374 0.0244,0 0.1216,0.0363 0.2795,0.1091 0.1579,0.0729 0.328,0.1823 0.5221,0.3158 0.1945,0.1338 0.4009,0.3036 0.6197,0.5103 0.2186,0.2063 0.4127,0.4371 0.5828,0.68 l 16.7618,25.264 -10.7129,0 c -1.4332,0 -2.6357,-0.3764 -3.6074,-1.1174 -0.9717,-0.7409 -1.8706,-1.7368 -2.6966,-3.0002 l -13.5913,-20.4539 c -0.2673,-0.413 -0.5587,-0.7654 -0.8748,-1.0568 -0.3157,-0.2914 -0.6071,-0.5343 -0.8864,-0.7044 -0.2794,-0.1701 -0.5224,-0.2917 -0.7168,-0.3767 -0.1942,-0.085 -0.3036,-0.1457 -0.3277,-0.1698 0.0241,0 0.1335,-0.0366 0.3277,-0.1094 0.1944,-0.0729 0.4374,-0.1945 0.7168,-0.3645 0.2793,-0.1698 0.5707,-0.4009 0.8864,-0.6923 0.3161,-0.2914 0.6075,-0.6559 0.8748,-1.093 z m 199.1897,90.1891 -11.952,0 0,-52.2528 21.0614,0 c 2.4293,0 4.7248,0.4859 6.8749,1.4698 2.1498,0.9839 4.0204,2.3077 5.6115,3.9719 1.591,1.6639 2.842,3.5952 3.7652,5.7935 0.923,2.1985 1.3847,4.5062 1.3847,6.9111 0,2.4052 -0.4617,4.7007 -1.3847,6.8993 -0.9232,2.1982 -2.1742,4.1295 -3.7652,5.7937 -1.5911,1.6639 -3.4617,2.9877 -5.5996,3.9716 -2.1498,0.9839 -4.4331,1.482 -6.8624,1.482 l -9.1338,0 0,15.9599 z m 9.1582,-27.9119 c 0.7288,0 1.4332,-0.182 2.1132,-0.5466 0.6803,-0.3642 1.2753,-0.8379 1.7977,-1.421 0.5222,-0.5831 0.9352,-1.2512 1.251,-1.9919 0.3158,-0.741 0.4736,-1.4819 0.4736,-2.2351 0,-0.7529 -0.1578,-1.506 -0.4736,-2.247 -0.3158,-0.7407 -0.7288,-1.3966 -1.251,-1.9797 -0.5224,-0.5831 -1.1174,-1.0568 -1.7977,-1.421 -0.68,-0.3646 -1.3844,-0.5466 -2.1132,-0.5466 l -9.1582,0 0,12.3889 9.1582,0 z m -61.1782,6.8504 c 0,1.3119 0.267,2.5507 0.8017,3.7168 0.5343,1.1659 1.2509,2.1864 2.1497,3.0609 0.8867,0.8745 1.9313,1.5667 3.1094,2.0769 1.1661,0.5103 2.4171,0.7651 3.7289,0.7651 1.2994,0 2.5507,-0.2548 3.7165,-0.7651 1.1784,-0.5102 2.223,-1.2024 3.1337,-2.0769 0.9111,-0.8745 1.6277,-1.895 2.1623,-3.0609 0.5343,-1.1661 0.8017,-2.4049 0.8017,-3.7168 l 0,-31.1913 11.9517,0 0,31.2157 c 0,2.988 -0.5709,5.7938 -1.7127,8.405 -1.1418,2.6116 -2.6963,4.8827 -4.6641,6.8383 -1.9676,1.9435 -4.2634,3.4739 -6.899,4.6035 -2.6357,1.1296 -5.4658,1.7005 -8.4779,1.7005 -1.9922,0 -3.9112,-0.2551 -5.7574,-0.7654 -1.8462,-0.5099 -3.5708,-1.2387 -5.1741,-2.1741 -1.6033,-0.9352 -3.073,-2.0526 -4.4093,-3.3645 -1.336,-1.3118 -2.4777,-2.7691 -3.4251,-4.3605 -0.9473,-1.5911 -1.6761,-3.3038 -2.1985,-5.1378 -0.5222,-1.834 -0.7895,-3.7531 -0.7895,-5.745 l 0,-31.2157 11.952,0 0,31.1913 z m -70.6039,-5.0649 c 0,-2.4534 0.3279,-4.822 0.9717,-7.0934 0.6437,-2.2833 1.5426,-4.3968 2.7085,-6.3766 1.1784,-1.9678 2.575,-3.753 4.2026,-5.3807 1.6277,-1.6154 3.4373,-3.0002 5.4295,-4.1541 2.0041,-1.1537 4.1417,-2.0526 6.4253,-2.6842 2.2833,-0.6315 4.6641,-0.9473 7.1175,-0.9473 2.4537,0 4.8342,0.3158 7.1175,0.9473 2.2836,0.6316 4.4212,1.5305 6.4256,2.6842 1.9919,1.1539 3.8016,2.5387 5.4292,4.1541 1.6277,1.6277 3.0365,3.4129 4.2027,5.3807 1.1658,1.9798 2.0647,4.0933 2.7085,6.3766 0.6437,2.2714 0.9717,4.64 0.9717,7.0934 0,2.4537 -0.328,4.822 -0.9717,7.0934 -0.6438,2.2833 -1.5427,4.3968 -2.7085,6.3768 -1.1662,1.9676 -2.575,3.7531 -4.2027,5.3808 -1.6276,1.6151 -3.4373,2.9999 -5.4292,4.1539 -2.0044,1.1537 -4.142,2.0525 -6.4256,2.6841 -2.2833,0.6318 -4.6638,0.9476 -7.1175,0.9476 -2.4777,0 -4.8583,-0.3158 -7.1297,-0.9476 -2.2836,-0.6316 -4.409,-1.5304 -6.4131,-2.6841 -1.9922,-1.154 -3.8018,-2.5388 -5.4295,-4.1539 -1.6276,-1.6277 -3.0242,-3.4132 -4.2026,-5.3808 -1.1659,-1.98 -2.0648,-4.0935 -2.7085,-6.3768 -0.6438,-2.2714 -0.9717,-4.6397 -0.9717,-7.0934 z m 11.952,0 c 0,2.0163 0.4008,3.911 1.2024,5.6965 0.8017,1.7855 1.8825,3.3525 3.2429,4.6885 1.3603,1.336 2.9395,2.3805 4.7369,3.1459 1.7978,0.7651 3.7046,1.1537 5.7209,1.1537 1.9919,0 3.8991,-0.3886 5.7087,-1.1537 1.8097,-0.7654 3.3888,-1.8099 4.7492,-3.1459 1.3603,-1.336 2.4415,-2.903 3.2431,-4.6885 0.8016,-1.7855 1.2025,-3.6802 1.2025,-5.6965 0,-2.0163 -0.4009,-3.9231 -1.2025,-5.7087 -0.8016,-1.7855 -1.8828,-3.3401 -3.2431,-4.6641 -1.3604,-1.3238 -2.9395,-2.3684 -4.7492,-3.1459 -1.8096,-0.7773 -3.7168,-1.1659 -5.7087,-1.1659 -2.0163,0 -3.9231,0.3886 -5.7209,1.1659 -1.7974,0.7775 -3.3766,1.8221 -4.7369,3.1459 -1.3604,1.324 -2.4412,2.8786 -3.2429,4.6641 -0.8016,1.7856 -1.2024,3.6924 -1.2024,5.7087 z m -42.1093,26.1264 -11.9517,0 0,-52.2528 20.4784,0 c 1.9678,0 3.7896,0.2552 5.4535,0.7654 1.6643,0.5099 3.1703,1.2025 4.5185,2.0647 1.3481,0.8623 2.5384,1.8828 3.571,3.0609 1.0324,1.1781 1.8947,2.4415 2.5869,3.7896 0.6925,1.3482 1.2147,2.7451 1.567,4.1783 0.3524,1.4332 0.5222,2.8542 0.5222,4.2633 0,1.3847 -0.1457,2.7692 -0.4493,4.1417 -0.3036,1.3725 -0.7895,2.7088 -1.4454,4.0204 -0.6559,1.3241 -1.506,2.575 -2.5506,3.7774 -1.0446,1.2025 -2.308,2.3321 -3.7896,3.3767 l 13.9195,18.8144 -9.9479,0 -0.2186,0 c -0.2185,0 -0.5831,-0.0366 -1.1052,-0.1095 -0.5224,-0.0728 -1.1174,-0.2429 -1.7734,-0.5099 -0.6559,-0.2673 -1.3481,-0.6681 -2.0769,-1.2025 -0.7288,-0.5346 -1.421,-1.2753 -2.077,-2.2229 l -8.721,-11.8423 -6.5104,0 0,15.8871 z m 9.1582,-27.9119 c 0.7288,0 1.4332,-0.182 2.1135,-0.5466 0.6803,-0.3642 1.2753,-0.8379 1.7978,-1.421 0.5221,-0.5831 0.9351,-1.2512 1.2509,-1.9919 0.3158,-0.741 0.4737,-1.4819 0.4737,-2.2351 0,-0.7529 -0.1579,-1.506 -0.4737,-2.247 -0.3158,-0.7407 -0.7288,-1.3966 -1.2509,-1.9797 -0.5225,-0.5831 -1.1175,-1.0568 -1.7978,-1.421 -0.6803,-0.3646 -1.3847,-0.5466 -2.1135,-0.5466 l -9.1582,0 0,12.3889 9.1582,0 z m -29.1855,-1.3845 0,22.7254 c -1.3847,1.4332 -2.8664,2.6112 -4.4575,3.5223 -1.5911,0.9111 -3.2553,1.6277 -4.9799,2.1498 -1.7249,0.5224 -3.486,0.8867 -5.2957,1.0933 -1.8099,0.2064 -3.6439,0.3158 -5.4901,0.3158 -2.4537,0 -4.822,-0.3158 -7.1056,-0.9476 -2.2833,-0.6316 -4.409,-1.5304 -6.3887,-2.6841 -1.9798,-1.154 -3.7897,-2.5388 -5.4295,-4.1539 -1.6396,-1.6277 -3.0365,-3.4132 -4.1902,-5.3808 -1.154,-1.98 -2.0528,-4.0935 -2.6966,-6.3768 -0.6437,-2.2714 -0.9717,-4.6397 -0.9717,-7.0934 0,-2.4534 0.328,-4.822 0.9717,-7.0934 0.6438,-2.2833 1.5426,-4.3968 2.6966,-6.3766 1.1537,-1.9678 2.5506,-3.753 4.1902,-5.3807 1.6398,-1.6154 3.4497,-3.0002 5.4417,-4.1541 1.9797,-1.1537 4.1176,-2.0526 6.4009,-2.6842 2.2836,-0.6315 4.6519,-0.9473 7.1056,-0.9473 1.9431,0 3.8866,0.2429 5.8056,0.7288 1.9194,0.4858 3.7896,1.1659 5.5996,2.0525 1.8096,0.8867 3.5586,1.9798 5.2469,3.2673 1.6883,1.2874 3.2675,2.7328 4.7492,4.3361 l -3.0243,3.1337 c -1.5061,1.5792 -3.4132,2.3686 -5.7209,2.3686 -1.6277,0 -3.0971,-0.4492 -4.409,-1.3359 -1.2147,-0.7898 -2.5021,-1.4213 -3.8747,-1.895 -1.3725,-0.4737 -2.8301,-0.7044 -4.3602,-0.7044 -2.0163,0 -3.9235,0.3886 -5.7209,1.1659 -1.7978,0.7775 -3.3645,1.8221 -4.7129,3.1459 -1.3482,1.324 -2.429,2.8786 -3.2306,4.6641 -0.8017,1.7856 -1.2025,3.6924 -1.2025,5.7087 0,2.1135 0.4127,4.0691 1.2509,5.8666 0.8382,1.7977 1.9556,3.3403 3.3523,4.6397 1.3969,1.2997 3.0124,2.3202 4.8342,3.0609 1.834,0.741 3.7531,1.1174 5.7693,1.1174 1.3848,0 2.7695,-0.1335 4.142,-0.4008 1.3845,-0.267 2.6357,-0.6679 3.7531,-1.2025 l 0,-5.0284 c -1.1659,-0.0243 -2.2348,-0.2185 -3.2066,-0.583 -0.9717,-0.3643 -1.7977,-0.8623 -2.4899,-1.4817 -0.6922,-0.6197 -1.239,-1.3485 -1.6277,-2.1864 -0.3886,-0.8382 -0.5831,-1.7611 -0.5831,-2.7816 l 0,-4.1902 19.859,0 z m 207.7753,-72.8566 0,-11.1504 40.9932,0 0,11.1504 -14.5023,0 0,41.1023 -11.9517,0 0,-41.1023 -14.5392,0 z m -36.8983,14.976 c 0,2.0163 0.4008,3.9109 1.2024,5.6965 0.8017,1.7855 1.8828,3.3525 3.2432,4.6885 1.3603,1.336 2.9395,2.3805 4.7369,3.1459 1.7978,0.7651 3.7046,1.1537 5.7209,1.1537 1.5548,0 3.0243,-0.2429 4.3968,-0.7166 1.3726,-0.4737 2.6479,-1.1052 3.8381,-1.9069 1.2875,-0.8745 2.7451,-1.3119 4.3728,-1.3119 1.2631,0 2.3442,0.2067 3.2431,0.6075 0.8989,0.4008 1.7246,0.9717 2.4778,1.7246 l 3.0971,3.1096 c -1.5061,1.6033 -3.0971,3.0609 -4.7855,4.3484 -1.6883,1.2875 -3.4373,2.3805 -5.2472,3.2794 -1.8096,0.9107 -3.6802,1.6032 -5.5992,2.0891 -1.9191,0.4859 -3.8503,0.7288 -5.7938,0.7288 -2.4537,0 -4.822,-0.3158 -7.1056,-0.9476 -2.2833,-0.6316 -4.4212,-1.5305 -6.4131,-2.6842 -1.9919,-1.1539 -3.8137,-2.5387 -5.4414,-4.1539 -1.6276,-1.6276 -3.0364,-3.4131 -4.2026,-5.3807 -1.1659,-1.98 -2.077,-4.0935 -2.7207,-6.3768 -0.6438,-2.2714 -0.9717,-4.6397 -0.9717,-7.0934 0,-2.4534 0.3279,-4.822 0.9717,-7.0934 0.6437,-2.2833 1.5548,-4.3968 2.7207,-6.3766 1.1662,-1.9678 2.575,-3.753 4.2026,-5.3807 1.6277,-1.6155 3.4495,-3.0002 5.4414,-4.1542 1.9919,-1.1537 4.1298,-2.0525 6.4131,-2.6841 2.2836,-0.6315 4.6519,-0.9473 7.1056,-0.9473 1.9435,0 3.8747,0.2429 5.7938,0.7288 1.919,0.4858 3.7896,1.178 5.5992,2.0769 1.8099,0.8989 3.5589,1.9919 5.2472,3.2794 1.6884,1.2875 3.2794,2.7329 4.7855,4.3362 l -3.0971,3.0971 c -0.7288,0.7288 -1.567,1.2997 -2.5144,1.7249 -0.9473,0.4252 -2.0163,0.6437 -3.2065,0.6437 -1.6033,0 -3.0609,-0.4493 -4.3728,-1.3359 -1.2143,-0.8139 -2.5018,-1.4576 -3.8743,-1.9194 -1.3726,-0.4493 -2.8302,-0.68 -4.3606,-0.68 -2.0163,0 -3.9231,0.3886 -5.7209,1.1659 -1.7974,0.7775 -3.3766,1.8221 -4.7369,3.1459 -1.3604,1.324 -2.4415,2.8786 -3.2432,4.6641 -0.8016,1.7855 -1.2024,3.6924 -1.2024,5.7087 z m -14.9987,26.1263 -34.7987,0 0,-52.2527 34.7987,0 0,11.1504 -22.847,0 0,9.1823 18.5837,0 0,11.15 -18.5837,0 0,9.62 22.847,0 0,11.15 z m -43.6031,0 -11.8423,0 -24.9605,-36.1346 0,36.1346 -11.8788,0 0,-52.2527 11.7331,0 c 1.1662,0 2.1986,0.1701 3.0975,0.5103 0.8985,0.3401 1.5911,0.8623 2.0769,1.5667 l 18.2557,26.7701 c 0.267,0.3886 0.4978,0.8138 0.6922,1.2753 0.1945,0.4618 0.3643,0.8867 0.5103,1.2875 0.1457,0.4008 0.2548,0.7531 0.3279,1.0446 0.0729,0.2916 0.1092,0.4739 0.1092,0.5468 l 0,-33.0013 11.8788,0 0,52.2527 z M 387.6676,258.7768 c 0,-2.4534 0.3279,-4.822 0.9717,-7.0934 0.6437,-2.2833 1.5426,-4.3968 2.7085,-6.3766 1.1783,-1.9678 2.575,-3.753 4.2026,-5.3807 1.6277,-1.6155 3.4373,-3.0002 5.4295,-4.1542 2.0041,-1.1537 4.1417,-2.0525 6.4253,-2.6841 2.2833,-0.6315 4.6641,-0.9473 7.1175,-0.9473 2.4537,0 4.8342,0.3158 7.1175,0.9473 2.2836,0.6316 4.4212,1.5304 6.4256,2.6841 1.9919,1.154 3.8015,2.5387 5.4292,4.1542 1.6276,1.6277 3.0365,3.4129 4.2026,5.3807 1.1659,1.9798 2.0648,4.0933 2.7085,6.3766 0.6438,2.2714 0.9718,4.64 0.9718,7.0934 0,2.4537 -0.328,4.822 -0.9718,7.0934 -0.6437,2.2833 -1.5426,4.3968 -2.7085,6.3768 -1.1661,1.9676 -2.575,3.7531 -4.2026,5.3807 -1.6277,1.6152 -3.4373,3 -5.4292,4.1539 -2.0044,1.1537 -4.142,2.0526 -6.4256,2.6842 -2.2833,0.6318 -4.6638,0.9476 -7.1175,0.9476 -2.4778,0 -4.8583,-0.3158 -7.1297,-0.9476 -2.2836,-0.6316 -4.409,-1.5305 -6.4131,-2.6842 -1.9922,-1.1539 -3.8018,-2.5387 -5.4295,-4.1539 -1.6276,-1.6276 -3.0243,-3.4131 -4.2026,-5.3807 -1.1659,-1.98 -2.0648,-4.0935 -2.7085,-6.3768 -0.6438,-2.2714 -0.9717,-4.6397 -0.9717,-7.0934 z m -35.6227,26.1263 -11.9518,0 0,-52.2527 11.9518,0 0,52.2527 z"
     style="fill:#0059a5;fill-rule:evenodd"
     id="path20"
     inkscape:connector-curvature="0" />
  <path
     d="m 410.6815,241.3955 c 0.4531,-0.5081 0.5168,-0.3367 0.478,-1.0952 -0.0483,-0.9275 -0.519,-0.6655 -2.9452,-0.5293 -3.3756,0.1889 -2.1772,1.0359 -3.9261,0.716 -0.8229,-0.1508 -0.6084,-0.1772 -1.1238,-0.4605 -1.9041,2.6319 -1.459,0.0227 -2.4759,3.0953 -0.2686,0.8126 -0.7913,0.7145 -1.6149,1.1998 -1.0484,0.6179 -1.8134,1.8171 -2.6026,2.995 -0.7687,1.1486 0.776,0.8536 -0.5966,3.9584 -0.4386,0.9927 -0.0806,-0.4159 -0.1347,2.03 2.1062,1.1465 1.1852,2.6963 4.2621,4.3684 0.8002,0.4348 1.1582,0.1771 1.9093,-0.0293 1.8734,-0.5169 -0.2101,0.4824 3.339,-0.4978 2.8354,-0.7834 2.1824,0.754 3.2754,0.7811 0.4114,0.011 0.5256,-0.1735 0.9927,-0.0198 1.1311,0.3734 0.5644,1.3698 0.5827,1.9562 0.0366,1.1632 0.1494,-0.1699 -0.3104,1.1164 0.01,0.4729 1.1611,1.2138 1.9876,3.0952 0.4971,1.1311 0.2299,0.776 0.5271,1.91 0.2584,0.9847 0.2746,0.7204 -0.2621,1.6209 -0.8316,1.3953 -0.9414,2.3492 -0.1464,3.6845 0.9085,1.5257 0.847,1.8222 1.1933,3.6788 0.2204,1.1808 0.4546,0.7877 0.921,1.549 1.1859,1.9357 0.295,2.8588 1.3236,3.2088 0.0329,0.0117 3.3214,-0.1025 3.9679,-0.6743 0.2211,-0.1947 0.3404,-0.4143 0.571,-0.6442 1.0637,-1.0608 1.9429,-1.1538 2.361,-2.5352 0.0776,-0.2562 0.071,-0.276 0.142,-0.5579 l 0.1105,-0.4326 c 1.8485,-0.8119 1.4225,-0.6252 1.2424,-2.6428 -0.0601,-0.6721 0.3902,-0.7709 0.8536,-1.1992 2.0037,-1.8544 2.1465,0.336 2.5923,-3.8888 0.1025,-0.9752 -0.5315,-1.7526 -0.6647,-3.2483 -0.1084,-1.2189 2.9949,-4.1553 3.7094,-4.7065 1.5982,-1.2343 2.809,-3.7856 2.8332,-5.8033 -1.7782,0.4774 -4.1421,1.7805 -4.4101,0.0147 l -0.2086,-0.5637 c -0.6809,-0.8353 -1.637,-0.6669 -2.2131,-2.0001 -0.5886,-1.3609 -0.8917,-0.5432 -1.1479,-1.7899 -0.3192,-1.5528 -0.4773,-0.9422 -0.9774,-1.8463 -0.1068,-0.1933 -0.0688,-0.1713 -0.1639,-0.3602 -0.0183,-0.0359 -0.0388,-0.0827 -0.0579,-0.1186 -0.3763,-0.7028 -1.6867,-2.4459 -1.8111,-3.1802 0.5227,0.6662 0.2752,0.7724 1.0446,1.0359 0.1743,-2.0483 -0.3741,-1.7467 -1.3594,-1.8565 -1.0806,-0.1208 -1.6326,0.7782 -4.6312,-0.4437 -1.7614,-0.7182 -1.3002,0.4524 -1.7006,1.1897 -1.5535,-0.1545 -1.5162,-0.6201 -2.3939,-1.1179 -0.5059,-0.2863 -0.9415,-0.205 -1.4027,-0.3631 -0.6318,-0.216 -0.2357,-0.1633 -0.9385,-0.5989 z m 17.447,31.8258 c 0.005,1.1963 0.0483,2.566 1.41,1.9262 0.8353,-0.3932 2.0871,-4.2564 2.4136,-4.9694 0.1757,-0.3844 0.3609,-0.4466 0.3544,-0.9561 -0.006,-0.4517 -0.1194,-1.0755 -0.2424,-1.4854 -0.6881,0.3104 -0.1478,-0.0542 -0.7057,0.6523 -1.7387,2.2021 -0.6472,0.7284 -2.0198,1.4693 -0.7409,0.4004 -0.4027,0.9809 -0.4429,1.7884 -0.0439,0.8676 -0.5132,0.9561 -0.7672,1.5747 z"
     style="fill:#ffffff;fill-rule:evenodd"
     id="path22"
     inkscape:connector-curvature="0" />
  <path
     d="m 186.7773,356.3868 c -6.1646,-1.6836 -10.3777,-4.4216 -11.9617,-8.2125 -5.6459,-13.5032 32.5414,-39.8805 66.3587,-48.5526 33.8173,-8.6721 69.3146,-7.605 83.3974,0.9741 -25.6136,-6.9874 -56.638,-4.6373 -80.8202,2.8888 -27.8518,8.6667 -85.5646,34.541 -56.9742,52.9022 z"
     style="fill:#009ee0;fill-rule:evenodd"
     id="path24"
     inkscape:connector-curvature="0" />
  <path
     d="m 270.9114,380.1876 c -20.2538,-8.517 -38.7158,-26.068 -49.7572,-49.8401 -15.4319,-33.2197 -11.9218,-68.9964 6.3235,-91.0396 -13.74,24.7633 -16.7753,58.8706 -1.7832,91.1424 10.0286,21.5926 27.6366,38.9332 45.2169,49.7373 z"
     style="fill:#009ee0;fill-rule:evenodd"
     id="path26"
     inkscape:connector-curvature="0" />
  <path
     d="m 297.0754,371.6169 c 13.5177,-17.3213 21.0612,-41.6519 19.0912,-67.789 -2.7506,-36.5256 -23.2809,-66.035 -49.9658,-76.3648 24.0811,14.9032 43.3819,43.1875 46.0536,78.6713 1.7898,23.7403 -5.111,47.4705 -15.179,65.4825 z"
     style="fill:#009ee0;fill-rule:evenodd"
     id="path28"
     inkscape:connector-curvature="0" />
  <path
     d="m 247.1863,229.6733 c 14.5558,45.7345 26.6009,92.206 37.7552,138.9386 -8.1059,-53.1289 -12.727,-89.0566 -37.7552,-138.9386 z"
     style="fill:#009ee0;fill-rule:evenodd"
     id="path30"
     inkscape:connector-curvature="0" />
</svg>
