<?xml version="1.0" encoding="utf-8"?>
<!-- Generator: Adobe Illustrator 23.0.2, SVG Export Plug-In . SVG Version: 6.00 Build 0)  -->
<svg version="1.1" id="Layer_1" xmlns="http://www.w3.org/2000/svg" xmlns:xlink="http://www.w3.org/1999/xlink" x="0px" y="0px"
	 viewBox="0 0 1207.9 707.9" style="enable-background:new 0 0 1207.9 707.9;" xml:space="preserve">
<style type="text/css">
	.st0{fill:#007D40;}
	.st1{fill:#8CBF18;}
	.st2{fill:#DEE307;}
	.st3{fill:#8BCFE1;}
	.st4{fill:#02243D;}
</style>
<g>
	<g>
		<polygon class="st0" points="188.3,313 145.9,239.6 188.3,166.2 273.1,166.2 315.5,239.6 273.1,313 		"/>
		<polygon class="st1" points="188.3,463.9 145.9,390.5 188.3,317.1 273.1,317.1 315.5,390.5 273.1,463.9 		"/>
		<polygon class="st2" points="318.6,539.8 276.2,466.3 318.6,392.9 403.4,392.9 445.8,466.3 403.4,539.8 		"/>
		<polygon class="st3" points="448.8,313 406.4,239.6 448.8,166.2 533.6,166.2 576,239.6 533.6,313 		"/>
		<polygon class="st4" points="318.6,236.9 276.2,163.5 318.6,90.1 403.4,90.1 445.8,163.5 403.4,236.9 		"/>
	</g>
	<g>
		<path class="st4" d="M514.5,436.8l-2.5,19h-17.4l-3,22.3h15.4l-2.5,19H489l-3.1,23.1h17.7l-2.5,19h-34.9l13.7-102.4L514.5,436.8
			L514.5,436.8L514.5,436.8z"/>
		<path class="st4" d="M534.4,457.3l10.5,49.5l0.3-0.2c-0.4-3.9,0-8.2,0.6-12.4l4.9-36.8h13.8l-11,81.9h-13L530,489.8l-0.2,0.2
			l-0.5,8.3l-0.4,3.4l-5.1,37.6h-13.8l11-81.9L534.4,457.3L534.4,457.3z"/>
		<path class="st4" d="M601.8,457.3l-2,15.2h-14l-2.4,17.8h12.3l-2,15.2h-12.3l-2.5,18.5H593l-2,15.2h-27.9l11-81.9L601.8,457.3
			L601.8,457.3L601.8,457.3z"/>
		<path class="st4" d="M599.3,539.2l11-82h13.9c8.8,0,24.4,1.1,21.3,23.5c-1.2,9-5.3,16.7-12.7,21.2l7.1,37.3h-14.5l-7-37.8h-0.2
			l-5.1,37.8H599.3z M619.4,492.5l2.4,0.1c6.3,0,9.4-5,10.3-11.7c0.8-5.9-0.9-10.7-7.9-10.2h-1.8L619.4,492.5z"/>
		<path class="st4" d="M699.2,493.6l-0.9,6.4c-2.3,17.4-9.1,40.5-27.8,40.5s-21.6-23.7-19.2-41.8c2.6-18.9,10.9-42.7,30.6-42.7
			c10.6,0,16.5,7.8,17.9,19.5l-14.2,6.1c-0.1-4.1-0.4-10.5-5.6-10.5c-9.2-0.7-12.8,19.6-13.9,27.3c-1.2,8.5-3.2,27.3,6.9,27.3
			c7,0,9.6-11.1,10.3-16.7h-8.8l2.1-15.2L699.2,493.6L699.2,493.6z"/>
		<path class="st4" d="M721.9,457.3l4.2,22.3l0.5,4h0.2l2.4-6.1l8.9-20.2h15.4l-22,42.7l-5.3,39.2h-13.8l5.3-39.2l-11-42.7
			L721.9,457.3L721.9,457.3z"/>
		<path class="st4" d="M831.9,456.1c-2.1-0.7-4.2-1.1-6.4-1.1c-15.1,0-23.9,16.2-26,31.9c-2.1,15.2,2,34,17,34
			c2.2,0,4.5-0.7,6.8-1.5l-2.5,19.2c-2.8,1.2-5.4,1.8-8.2,1.8c-24.8,0-35.1-26.4-31.4-53.3c3.3-25.4,21.2-51.5,44.7-51.5
			c3,0,5.8,0.7,8.5,1.9L831.9,456.1z"/>
		<path class="st4" d="M853,457.3l-4.2,32.1h14l4.2-32.1h13.8l-11,82H856l4.7-34.7h-14l-4.7,34.7h-13.8l11-82H853z"/>
		<path class="st4" d="M917.1,457.3l5.7,82h-14.7l-0.7-13.8h-14l-4.3,13.8h-13.7l27.2-82H917.1z M906.5,490.7l0.1-12.4h-0.2
			l-3.1,12.4l-5.9,21.8h9.7L906.5,490.7z"/>
		<path class="st4" d="M928.3,539.2l11-82h13.9c8.8,0,24.4,1.1,21.3,23.5c-1.2,9-5.3,16.7-12.7,21.2l7.1,37.3h-14.5l-7-37.8h-0.2
			l-5.1,37.8H928.3z M948.4,492.5l2.4,0.1c6.3,0,9.4-5,10.3-11.7c0.8-5.9-0.9-10.7-7.9-10.2h-1.8L948.4,492.5z"/>
		<path class="st4" d="M1017.8,457.3l-2,15.2h-10.9l-9,66.7h-13.8l9-66.7h-10.8l2-15.2H1017.8z"/>
		<path class="st4" d="M1051.8,457.3l-2,15.2h-13.9l-2.4,17.8h12.3l-2,15.2h-12.3l-2.5,18.5h14.1l-2,15.2h-27.9l11-81.9
			L1051.8,457.3L1051.8,457.3L1051.8,457.3z"/>
		<path class="st4" d="M1049.4,539.2l11-82h13.9c8.8,0,24.4,1.1,21.3,23.5c-1.2,9-5.3,16.7-12.7,21.2l7.1,37.3h-14.5l-7-37.8h-0.2
			l-5.1,37.8H1049.4z M1069.4,492.5l2.4,0.1c6.3,0,9.4-5,10.3-11.7c0.8-5.9-0.9-10.7-7.9-10.2h-1.8L1069.4,492.5z"/>
	</g>
	<g>
		<path class="st4" d="M485.4,422.4h-2.9l4.9-30.7h2.9L485.4,422.4z"/>
		<path class="st4" d="M510.9,422.4h-2.5l-3.7-20.7c-0.2-1.3-0.2-2.6-0.4-4h-0.2c-0.2,2-0.3,4-0.6,6l-3,18.7h-2.5l4.9-30.7h2.5
			l3.7,21.4c0.2,1.1,0.3,2.1,0.4,3.2h0.1c0.1-1.3,0.2-2.7,0.4-4.1l3.2-20.5h2.5L510.9,422.4z"/>
		<path class="st4" d="M536.8,394.3h-4.6l-4.4,28.1h-2.9l4.4-28.1h-4.6l0.4-2.6h12.1L536.8,394.3z"/>
		<path class="st4" d="M555.9,394.3h-6.8l-1.7,10.8h6.6l-0.4,2.6H547l-1.9,12.1h6.8l-0.4,2.6h-9.7l4.9-30.7h9.7L555.9,394.3z"/>
		<path class="st4" d="M562.4,422.4l4.9-30.7h3.1c4.3,0,8.4,0.3,7.2,7.8c-0.6,3.9-2.1,7.7-7.1,7.9l4.4,15h-3l-4.2-15h-0.1l-2.4,15
			L562.4,422.4L562.4,422.4z M568,405h1c4,0,4.9-1.4,5.5-5.4c0.7-4.9-0.7-5.3-4.3-5.3h-0.6L568,405z"/>
		<path class="st4" d="M598.3,422.4h-2.5l-3.7-20.7c-0.2-1.3-0.2-2.6-0.4-4h-0.2c-0.2,2-0.3,4-0.6,6l-3,18.7h-2.5l4.9-30.7h2.5
			l3.7,21.4c0.2,1.1,0.3,2.1,0.4,3.2h0.1c0.1-1.3,0.2-2.7,0.4-4.1l3.2-20.5h2.5L598.3,422.4z"/>
		<path class="st4" d="M623.5,422.4h-3.1l-0.1-6.3h-6.5l-2.1,6.3h-3.1l10.9-30.7h2.7L623.5,422.4z M620.2,413.6l-0.2-11.8
			c0-2.1,0.1-4.2,0.2-6.3h-0.2c-0.6,2.1-1.1,4.2-1.8,6.3l-3.7,11.8H620.2z"/>
		<path class="st4" d="M646.8,394.3h-4.6l-4.4,28.1h-2.9l4.4-28.1h-4.6l0.4-2.6h12.1L646.8,394.3z"/>
		<path class="st4" d="M654.7,422.4h-2.9l4.9-30.7h2.9L654.7,422.4z"/>
		<path class="st4" d="M684.1,407c-0.9,5.7-2.9,15.8-10.1,15.8c-6.7,0-6.2-8.6-5-15.8c1.2-7.8,3.5-15.8,10-15.8
			C686,391.2,685.2,400.3,684.1,407z M672,407c-0.9,5.4-1.9,13,2.5,13c4.4,0,5.8-7.6,6.7-13c0.9-5.4,1.8-13-2.6-13
			C674.2,393.8,672.8,401.6,672,407z"/>
		<path class="st4" d="M706.3,422.4h-2.5l-3.7-20.7c-0.2-1.3-0.2-2.6-0.4-4h-0.2c-0.2,2-0.3,4-0.6,6l-3,18.7h-2.5l4.9-30.7h2.5
			l3.7,21.4c0.2,1.1,0.3,2.1,0.4,3.2h0.1c0.1-1.3,0.2-2.7,0.4-4.1l3.2-20.5h2.5L706.3,422.4z"/>
		<path class="st4" d="M731.5,422.4h-3.1l-0.1-6.3h-6.5l-2.1,6.3h-3.1l10.9-30.7h2.7L731.5,422.4z M728.2,413.6l-0.2-11.8
			c0-2.1,0.1-4.2,0.2-6.3h-0.2c-0.6,2.1-1.1,4.2-1.8,6.3l-3.7,11.8H728.2z"/>
		<path class="st4" d="M745,419.8h6.7l-0.4,2.6h-9.5l4.9-30.7h2.9L745,419.8z"/>
	</g>
</g>
</svg>
